<svg width="16" height="17" viewBox="0 0 16 17" fill="none" xmlns="http://www.w3.org/2000/svg">
<g id="vuesax/outline/send-2">
<g id="send-2">
<path id="Vector" d="M9.47927 14.9196C8.6926 14.9196 7.57927 14.3662 6.69927 11.7196L6.21927 10.2796L4.77927 9.79956C2.13927 8.91956 1.58594 7.80623 1.58594 7.01956C1.58594 6.23956 2.13927 5.11956 4.77927 4.23289L10.4393 2.34623C11.8526 1.87289 13.0326 2.01289 13.7593 2.73289C14.4859 3.45289 14.6259 4.63956 14.1526 6.05289L12.2659 11.7129C11.3793 14.3662 10.2659 14.9196 9.47927 14.9196ZM5.0926 5.18623C3.23927 5.80623 2.57927 6.53956 2.57927 7.01956C2.57927 7.49956 3.23927 8.23289 5.0926 8.84623L6.7726 9.40623C6.91927 9.45289 7.03927 9.57289 7.08594 9.71956L7.64594 11.3996C8.25927 13.2529 8.99927 13.9129 9.47927 13.9129C9.95927 13.9129 10.6926 13.2529 11.3126 11.3996L13.1993 5.73956C13.5393 4.71289 13.4793 3.87289 13.0459 3.43956C12.6126 3.00623 11.7726 2.95289 10.7526 3.29289L5.0926 5.18623Z" fill="#292D32"/>
<path id="Vector_2" d="M6.74052 10.1007C6.61385 10.1007 6.48719 10.054 6.38719 9.95398C6.19385 9.76065 6.19385 9.44065 6.38719 9.24732L8.77385 6.85398C8.96719 6.66065 9.28719 6.66065 9.48052 6.85398C9.67385 7.04732 9.67385 7.36732 9.48052 7.56065L7.09385 9.95398C7.00052 10.054 6.86719 10.1007 6.74052 10.1007Z" fill="#292D32"/>
</g>
</g>
</svg>
